<svg width="172" height="112" viewBox="0 0 172 112" fill="none" xmlns="http://www.w3.org/2000/svg">
<path d="M68.6207 35.2461C72.1949 14.5592 97.9401 16.5097 104.096 25.243C117.76 20.4105 131.622 31.1383 128.679 42.9307C147.45 47.7176 144.479 76 124.746 76H75.1841C55.3587 76 52.3932 61.3716 52.2694 53.6672C52.1437 45.9628 57.3422 35.2461 68.6207 35.2461Z" fill="#B7A9F4"/>
<path d="M47.1719 51.2461C50.8667 30.5592 77.4796 32.5097 83.8431 41.243C97.9671 36.4105 112.297 47.1383 109.254 58.9307C128.658 63.7176 125.588 92 105.189 92H53.9565C33.4629 92 30.3975 77.3716 30.2695 69.6672C30.1395 61.9628 35.5133 51.2461 47.1719 51.2461Z" fill="#6E4EFF"/>
</svg>
