<svg width="215" height="214" viewBox="0 0 215 214" fill="none" xmlns="http://www.w3.org/2000/svg">
<path d="M127.4 195.875C124.68 184.995 112.667 170.942 107 165.275L118.9 156.775C132.5 166.295 139.3 186.809 141 195.875C135.56 199.955 129.667 197.575 127.4 195.875Z" fill="#FFA2C3"/>
<path d="M168.201 173.775C179.081 166.975 173.868 156.208 169.901 151.675L142.7 144.875L117.201 160.175C114.481 169.695 124.001 176.608 129.101 178.875C145.421 184.315 161.968 177.742 168.201 173.775Z" fill="#FFA2C3"/>
<path d="M23.7 110.875C23.7 132.635 46.3666 141.475 57.7 143.175C61.78 163.574 79.8 169.809 88.2999 170.377C107.34 171.737 123.433 164.144 129.1 160.177C141.34 154.737 151.2 157.91 154.6 160.177C176.36 160.177 186.333 140.91 188.6 131.277C189.96 108.157 173.3 97.8436 164.8 95.577C159.36 57.4983 128.533 59.3097 113.8 64.9753C86.6 41.8553 65.0666 63.2753 57.7 76.8753C30.5 78.2353 23.7 100.109 23.7 110.875Z" fill="#FFCADD"/>
<path d="M42.4 109.175C51.4667 109.741 71.3 105.095 78.1 81.9746" stroke="#FF4E8D" stroke-width="3"/>
<path d="M73.0438 73.7143C74.8431 82.6187 91.6968 87.0748 101.897 80.2747" stroke="#FF4E8D" stroke-width="3"/>
<path d="M118.907 138.08C103.6 139.78 96.8066 149.98 95.1066 156.78" stroke="#FF4E8D" stroke-width="3"/>
<path d="M120.163 100.676C126.975 94.6653 127.836 77.8887 122.3 70.0742" stroke="#FF4E8D" stroke-width="3"/>
<path d="M137.6 120.802C146.667 121.369 159.139 110.115 160.749 100.675" stroke="#FF4E8D" stroke-width="3"/>
<path d="M93.3973 114.276C79.8011 114.275 64.5001 124.475 61.1002 139.774" stroke="#FF4E8D" stroke-width="3"/>
<path d="M103.601 100.675C91.7032 109.176 90.3472 132.583 101.897 143.177" stroke="#FF4E8D" stroke-width="3"/>
<path d="M156.3 144.875C154.887 130.32 137.6 115.975 118.9 117.675" stroke="#FF4E8D" stroke-width="3"/>
<path d="M193.381 34.768C192.943 33.6275 191.847 32.875 190.625 32.875C189.403 32.875 188.307 33.6275 187.869 34.768L184.388 43.8176C183.501 46.1241 183.222 46.7888 182.841 47.3251C182.458 47.8632 181.988 48.3333 181.45 48.7159C180.914 49.0972 180.249 49.376 177.943 50.2631L168.893 53.7437C167.753 54.1824 167 55.2781 167 56.5C167 57.7219 167.753 58.8176 168.893 59.2563L177.943 62.7369C180.249 63.624 180.914 63.9028 181.45 64.2841C181.988 64.6667 182.458 65.1368 182.841 65.6749C183.222 66.2112 183.501 66.8759 184.388 69.1824L187.869 78.232C188.307 79.3725 189.403 80.125 190.625 80.125C191.847 80.125 192.943 79.3725 193.381 78.232L196.862 69.1824C197.749 66.8759 198.028 66.2112 198.409 65.6749C198.792 65.1368 199.262 64.6667 199.8 64.2841C200.336 63.9028 201.001 63.624 203.307 62.7369L212.357 59.2563C213.497 58.8176 214.25 57.7219 214.25 56.5C214.25 55.2781 213.497 54.1824 212.357 53.7437L203.307 50.2631C201.001 49.376 200.336 49.0972 199.8 48.7159C199.262 48.3333 198.792 47.8632 198.409 47.3251C198.028 46.7888 197.749 46.1241 196.862 43.8176L193.381 34.768Z" fill="#6C70FF"/>
<path d="M43.7188 34.2272C43.4055 33.4125 42.6228 32.875 41.75 32.875C40.8772 32.875 40.0945 33.4125 39.7812 34.2272L37.2951 40.6912C36.6614 42.3387 36.4623 42.8134 36.1899 43.1965C35.9166 43.5808 35.5808 43.9166 35.1965 44.1899C34.8134 44.4623 34.3387 44.6614 32.6912 45.2951L26.2272 47.7812C25.4125 48.0945 24.875 48.8772 24.875 49.75C24.875 50.6228 25.4125 51.4055 26.2272 51.7188L32.6912 54.2049C34.3387 54.8386 34.8134 55.0377 35.1965 55.3101C35.5808 55.5834 35.9166 55.9192 36.1899 56.3035C36.4623 56.6866 36.6614 57.1613 37.2951 58.8088L39.7812 65.2728C40.0945 66.0875 40.8772 66.625 41.75 66.625C42.6228 66.625 43.4055 66.0875 43.7188 65.2728L46.2049 58.8088C46.8386 57.1613 47.0377 56.6866 47.3101 56.3035C47.5834 55.9192 47.9192 55.5834 48.3035 55.3101C48.6866 55.0377 49.1613 54.8386 50.8088 54.2049L57.2728 51.7188C58.0875 51.4055 58.625 50.6228 58.625 49.75C58.625 48.8772 58.0875 48.0945 57.2728 47.7812L50.8088 45.2951C49.1613 44.6614 48.6866 44.4623 48.3035 44.1899C47.9192 43.9166 47.5834 43.5808 47.3101 43.1965C47.0377 42.8134 46.8386 42.3387 46.2049 40.6912L43.7188 34.2272Z" fill="#FFC500"/>
<path d="M114.2 17.0817C113.949 16.43 113.323 16 112.625 16C111.927 16 111.301 16.43 111.05 17.0817L109.061 22.2529C108.554 23.5709 108.395 23.9507 108.177 24.2572C107.958 24.5647 107.69 24.8333 107.382 25.0519C107.076 25.2698 106.696 25.4291 105.378 25.9361L100.207 27.925C99.555 28.1756 99.125 28.8018 99.125 29.5C99.125 30.1982 99.555 30.8244 100.207 31.075L105.378 33.0639C106.696 33.5709 107.076 33.7302 107.382 33.9481C107.69 34.1667 107.958 34.4353 108.177 34.7428C108.395 35.0493 108.554 35.4291 109.061 36.7471L111.05 41.9183C111.301 42.57 111.927 43 112.625 43C113.323 43 113.949 42.57 114.2 41.9183L116.189 36.7471C116.696 35.4291 116.855 35.0493 117.073 34.7428C117.292 34.4353 117.56 34.1667 117.868 33.9481C118.174 33.7302 118.554 33.5709 119.872 33.0639L125.043 31.075C125.695 30.8244 126.125 30.1982 126.125 29.5C126.125 28.8018 125.695 28.1756 125.043 27.925L119.872 25.9361C118.554 25.4291 118.174 25.2698 117.868 25.0519C117.56 24.8333 117.292 24.5647 117.073 24.2572C116.855 23.9507 116.696 23.5709 116.189 22.2529L114.2 17.0817Z" fill="#FF4E8D"/>
</svg>
