<svg width="36" height="36" viewBox="0 0 36 36" fill="none" xmlns="http://www.w3.org/2000/svg">
<path d="M27.2875 9.22225C27.6216 8.88808 28.1634 8.88808 28.4976 9.22225C28.8317 9.55641 28.8317 10.0982 28.4976 10.4324L9.28688 29.6431C8.95272 29.9772 8.41093 29.9772 8.07676 29.6431C7.74259 29.3089 7.74259 28.7671 8.07676 28.4329L27.2875 9.22225Z" fill="#FF4E8D"/>
<path fill-rule="evenodd" clip-rule="evenodd" d="M7.77995 25.8616C8.13264 26.3074 8.64669 26.5999 9.31733 26.7374C9.61409 26.7982 9.94151 26.8287 10.2992 26.8287H11.6705L13.4968 25.0727H11.0486H10.3753C9.79786 25.0727 9.40569 24.8768 9.22138 24.4756C9.14154 24.3019 9.1007 24.0896 9.1007 23.838V17.9481C10.9138 18.4753 12.875 18.8286 14.9154 19.0006L16.5271 17.4509C13.8294 17.3385 11.329 16.9177 9.1007 16.1829V14.9848C9.1007 14.1616 9.54775 13.7501 10.3753 13.7501H20.3759L23.6844 10.5689C23.4994 9.44646 22.6072 8.79299 21.1997 8.79299H14.8458C13.2573 8.79299 12.3252 9.62527 12.3252 11.0246V11.9941H10.2992C8.26367 11.9941 7.20786 12.991 7.20786 14.9299V23.8929C7.20786 24.7251 7.40054 25.382 7.77995 25.8616ZM14.1202 26.8287H25.7463C27.7913 26.8287 28.8376 25.841 28.8376 23.8929V14.9299C28.8376 14.1866 28.6838 13.5817 28.379 13.1184L26.8865 14.5535C26.9189 14.6819 26.9352 14.8256 26.9352 14.9848V16.1829C26.1599 16.4395 25.3505 16.6578 24.5105 16.8381L22.3991 18.8683C23.9833 18.6726 25.5029 18.3646 26.9352 17.9481V23.838C26.9352 24.6703 26.4977 25.0727 25.6702 25.0727H15.9465L14.1202 26.8287ZM22.8241 13.7501H25.2723L26.9491 12.1378C26.5967 12.0422 26.1956 11.9941 25.7463 11.9941H24.6504L22.8241 13.7501ZM14.9695 10.3386C14.4463 10.3386 14.1039 10.6405 14.1039 11.1161V11.9941H21.9416V11.1161C21.9416 10.6405 21.6087 10.3386 21.076 10.3386H14.9695Z" fill="#FF4E8D"/>
</svg>
