<svg width="62" height="62" viewBox="0 0 62 62" fill="none" xmlns="http://www.w3.org/2000/svg">
<path d="M4.25384 44.0597C-2.60166 33.2931 1.06258 18.725 7.87062 12.6097C18.9337 -0.352784 38.7905 -3.25695 52.832 12.6097C63.0413 24.1459 64.7461 41.7931 52.832 55.5347C44.0899 65.6179 15.0332 60.9889 4.25384 44.0597Z" fill="#FF4E8D" fill-opacity="0.2"/>
<path d="M10.0456 41.0962C5.33189 32.4703 7.92251 20.5838 13.1612 15.873C21.6742 5.88743 38.1153 2.23319 48.9202 14.4559C56.7761 23.3427 60.533 35.9949 47.7668 49.7401C40.7741 57.269 20.5466 60.3124 10.0456 41.0962Z" fill="#FF4E8D" fill-opacity="0.3"/>
<path d="M13.7293 39.4665C9.94405 32.5393 12.9944 22.1561 17.2013 18.373C24.0375 10.354 37.9303 7.77879 46.607 17.5944C52.9156 24.731 54.8747 35.5773 44.623 46.6156C39.0076 52.6618 22.1619 54.8983 13.7293 39.4665Z" fill="#FF4E8D" fill-opacity="0.3"/>
<path d="M18.537 37.296C15.7445 32.1918 17.9949 24.541 21.0984 21.7535C26.1417 15.8448 36.3909 13.9472 42.792 21.1798C47.4461 26.4383 48.8914 34.4304 41.3284 42.5638C37.1857 47.0189 24.758 48.6669 18.537 37.296Z" fill="#FF4E8D" fill-opacity="0.5"/>
<path d="M24.0309 34.7942C22.3739 31.7603 23.7092 27.2128 25.5507 25.5559C28.5431 22.0438 34.6245 20.9159 38.4226 25.2149C41.1841 28.3405 42.0417 33.0909 37.5542 37.9253C35.0961 40.5733 27.7221 41.5529 24.0309 34.7942Z" fill="#FF4E8D"/>
</svg>
