<svg width="57" height="56" viewBox="0 0 57 56" fill="none" xmlns="http://www.w3.org/2000/svg">
<path d="M0 25.1016C0 23.4447 1.34315 22.1016 3 22.1016H7V31.1016H3C1.34315 31.1016 0 29.7584 0 28.1016V25.1016Z" fill="#FFA2C3"/>
<path d="M56.1 25.1016C56.1 23.4447 54.7568 22.1016 53.1 22.1016H49.1V31.1016H53.1C54.7568 31.1016 56.1 29.7584 56.1 28.1016V25.1016Z" fill="#FFA2C3"/>
<path d="M4.22671 25.2735C4.66628 17.3231 11.2413 11.1016 19.2038 11.1016H36.9889C44.881 11.1016 51.4232 17.2169 51.9549 25.0911L52.1099 27.3867L51.7841 33.3117C51.4059 40.1902 44.3487 44.6352 37.9816 42.0053L31.8279 39.4636C29.383 38.4537 26.6376 38.4537 24.1927 39.4636L18.1771 41.9483C11.7711 44.5942 4.68128 40.0793 4.36957 33.1554L4.10987 27.3867L4.22671 25.2735Z" fill="#FFCADD"/>
<path d="M12.7 25.1007C13.7 27.6016 19.9 31.5007 24.7 25.1007" stroke="#FF4E8D" stroke-width="1.6" stroke-linecap="round"/>
<path d="M15.2656 30.6672C14.9532 30.9797 14.4467 30.9797 14.1343 30.6672C13.8218 30.3548 13.8218 29.8483 14.1343 29.5359L14.7 30.1016L15.2656 30.6672ZM15.2 27.5859L15.8246 27.0862C16.384 27.7853 16.3429 28.5992 16.1504 29.2094C15.9605 29.8114 15.5929 30.3399 15.2656 30.6672L14.7 30.1016L14.1343 29.5359C14.307 29.3632 14.5228 29.0506 14.6245 28.7281C14.7236 28.4139 14.6826 28.2199 14.5753 28.0857L15.2 27.5859Z" fill="#FF4E8D"/>
<path d="M19.9155 31.4593C19.7179 31.8545 19.2374 32.0147 18.8422 31.8171C18.447 31.6195 18.2868 31.139 18.4844 30.7438L19.2 31.1016L19.9155 31.4593ZM18.7245 28.6558L19.2813 28.0814C19.7958 28.5802 20.2027 29.0953 20.3053 29.7309C20.4082 30.3682 20.1734 30.9436 19.9155 31.4593L19.2 31.1016L18.4844 30.7438C18.7265 30.2596 18.7417 30.0849 18.7257 29.9858C18.7095 29.885 18.6286 29.6772 18.1676 29.2302L18.7245 28.6558Z" fill="#FF4E8D"/>
<path d="M25 29.6016C25 30.0434 24.6418 30.4016 24.2 30.4016C23.7581 30.4016 23.4 30.0434 23.4 29.6016L24.2 29.6016L25 29.6016ZM22.4808 27.459L22.6107 26.6697C24.117 26.9176 25 28.2816 25 29.6016L24.2 29.6016L23.4 29.6016C23.4 28.9215 22.9507 28.3471 22.3509 28.2484L22.4808 27.459Z" fill="#FF4E8D"/>
<path d="M31.7 25.1007C32.7 27.6016 38.9 31.5007 43.7 25.1007" stroke="#FF4E8D" stroke-width="1.6" stroke-linecap="round"/>
<path d="M34.2656 30.6672C33.9532 30.9797 33.4467 30.9797 33.1343 30.6672C32.8218 30.3548 32.8218 29.8483 33.1343 29.5359L33.7 30.1016L34.2656 30.6672ZM34.2 27.5859L34.8246 27.0862C35.384 27.7853 35.3429 28.5992 35.1504 29.2094C34.9605 29.8114 34.5929 30.3399 34.2656 30.6672L33.7 30.1016L33.1343 29.5359C33.307 29.3632 33.5228 29.0506 33.6245 28.7281C33.7236 28.4139 33.6826 28.2199 33.5753 28.0857L34.2 27.5859Z" fill="#FF4E8D"/>
<path d="M38.9155 31.4593C38.7179 31.8545 38.2374 32.0147 37.8422 31.8171C37.447 31.6195 37.2868 31.139 37.4844 30.7438L38.2 31.1016L38.9155 31.4593ZM37.7245 28.6558L38.2813 28.0814C38.7958 28.5802 39.2027 29.0953 39.3053 29.7309C39.4082 30.3682 39.1734 30.9436 38.9155 31.4593L38.2 31.1016L37.4844 30.7438C37.7265 30.2596 37.7417 30.0849 37.7257 29.9858C37.7095 29.885 37.6286 29.6772 37.1676 29.2302L37.7245 28.6558Z" fill="#FF4E8D"/>
<path d="M44 29.6016C44 30.0434 43.6418 30.4016 43.2 30.4016C42.7581 30.4016 42.4 30.0434 42.4 29.6016L43.2 29.6016L44 29.6016ZM41.4808 27.459L41.6107 26.6697C43.117 26.9176 44 28.2816 44 29.6016L43.2 29.6016L42.4 29.6016C42.4 28.9215 41.9507 28.3471 41.3509 28.2484L41.4808 27.459Z" fill="#FF4E8D"/>
</svg>
