<svg width="24" height="24" viewBox="0 0 24 24" fill="none" xmlns="http://www.w3.org/2000/svg">
<path d="M6 20C6 20.5523 6.44771 21 7 21C7.55228 21 8 20.5523 8 20L7 20L6 20ZM7 7L6 7L6 20L7 20L8 20L8 7L7 7Z" fill="#FF4E8D"/>
<path d="M11 20C11 20.5523 11.4477 21 12 21C12.5523 21 13 20.5523 13 20L12 20L11 20ZM12 7L11 7L11 20L12 20L13 20L13 7L12 7Z" fill="#FF4E8D"/>
<path d="M16 20C16 20.5523 16.4477 21 17 21C17.5523 21 18 20.5523 18 20L17 20L16 20ZM17 7L16 7L16 20L17 20L18 20L18 7L17 7Z" fill="#FF4E8D"/>
<path d="M4 10C2.61929 10 1.5 8.88071 1.5 7.5V7C1.5 5.34315 2.84315 4 4.5 4H12H18.75C20.2688 4 21.5 5.23122 21.5 6.75V8C21.5 8.82843 20.8284 9.5 20 9.5" stroke="#FF4E8D" stroke-width="2" stroke-linecap="round"/>
</svg>
