<svg width="57" height="56" viewBox="0 0 57 56" fill="none" xmlns="http://www.w3.org/2000/svg">
<path d="M0 23C0 21.3431 1.34315 20 3 20H7V29H3C1.34315 29 0 27.6569 0 26V23Z" fill="#FFA2C3"/>
<path d="M57 23C57 21.3431 55.6569 20 54 20H50V29H54C55.6569 29 57 27.6569 57 26V23Z" fill="#FFA2C3"/>
<path d="M4.527 23.1719C4.96657 15.2215 11.5416 9 19.5041 9H37.2892C45.1813 9 51.7235 15.1154 52.2552 22.9895L52.4102 25.2852L52.0844 31.2101C51.7062 38.0886 44.649 42.5337 38.2819 39.9037L32.1282 37.362C29.6833 36.3521 26.9378 36.3521 24.4929 37.362L18.4774 39.8467C12.0714 42.4926 4.98157 37.9777 4.66986 31.0538L4.41016 25.2852L4.527 23.1719Z" fill="#FFCADD"/>
<path d="M13 22.9992C14 25.5 20.2 29.3992 25 22.9992" stroke="#FF4E8D" stroke-width="1.6" stroke-linecap="round"/>
<path d="M15.0389 28.9247C14.7742 29.2784 14.2728 29.3505 13.9191 29.0858C13.5653 28.821 13.4932 28.3197 13.758 27.9659L14.3984 28.4453L15.0389 28.9247ZM15.888 26.2025L16.5153 26.699C16.2068 27.0888 16.1063 27.276 15.9511 27.5499C15.7752 27.8605 15.558 28.2311 15.0389 28.9247L14.3984 28.4453L13.758 27.9659C14.2307 27.3343 14.4114 27.0218 14.5589 26.7614C14.7271 26.4645 14.8754 26.1928 15.2607 25.706L15.888 26.2025Z" fill="#FF4E8D"/>
<path d="M12.98 26.9916C12.6265 27.2567 12.1251 27.185 11.86 26.8316C11.5949 26.4781 11.6665 25.9767 12.02 25.7116L12.5 26.3516L12.98 26.9916ZM14.5 24.8516L14.98 25.4916L12.98 26.9916L12.5 26.3516L12.02 25.7116L14.02 24.2116L14.5 24.8516Z" fill="#FF4E8D"/>
<path d="M18.0993 29.5951C18.0166 30.0291 17.5977 30.3139 17.1637 30.2312C16.7297 30.1485 16.4449 29.7296 16.5276 29.2956L17.3135 29.4453L18.0993 29.5951ZM17.7815 26.9895L18.5673 27.1393L18.0993 29.5951L17.3135 29.4453L16.5276 29.2956L16.9956 26.8398L17.7815 26.9895Z" fill="#FF4E8D"/>
<path d="M21.2045 29.4366C21.2654 29.8742 20.96 30.2783 20.5224 30.3392C20.0848 30.4001 19.6806 30.0948 19.6197 29.6571L20.4121 29.5469L21.2045 29.4366ZM20.0675 27.0707L20.8599 26.9605L21.2045 29.4366L20.4121 29.5469L19.6197 29.6571L19.2752 27.181L20.0675 27.0707Z" fill="#FF4E8D"/>
<path d="M24.1884 28.1707C24.3962 28.5606 24.2486 29.0451 23.8586 29.2529C23.4687 29.4607 22.9842 29.313 22.7764 28.9231L23.4824 28.5469L24.1884 28.1707ZM22.3068 26.3406L23.0128 25.9643L24.1884 28.1707L23.4824 28.5469L22.7764 28.9231L21.6008 26.7168L22.3068 26.3406Z" fill="#FF4E8D"/>
<path d="M26.3782 25.6862C26.7025 25.9862 26.7223 26.4923 26.4222 26.8167C26.1222 27.141 25.6161 27.1607 25.2917 26.8607L25.835 26.2734L26.3782 25.6862ZM23.9997 24.5758L24.5429 23.9886L26.3782 25.6862L25.835 26.2734L25.2917 26.8607L23.4565 25.1631L23.9997 24.5758Z" fill="#FF4E8D"/>
<ellipse cx="38" cy="25.9844" rx="6" ry="3.5" fill="white"/>
<circle cx="38" cy="26" r="2" fill="#303030"/>
<path d="M32 25.4852C33 22.9844 39.2 19.0852 44 25.4852" stroke="#FF4E8D" stroke-width="1.6" stroke-linecap="round"/>
<path d="M31.98 21.86C31.6265 21.5949 31.1251 21.6665 30.86 22.02C30.5949 22.3735 30.6665 22.8749 31.02 23.14L31.5 22.5L31.98 21.86ZM33.5 24L33.98 23.36L31.98 21.86L31.5 22.5L31.02 23.14L33.02 24.64L33.5 24Z" fill="#FF4E8D"/>
<path d="M37.0993 19.2565C37.0166 18.8225 36.5977 18.5377 36.1637 18.6204C35.7297 18.7031 35.4449 19.122 35.5276 19.556L36.3135 19.4062L37.0993 19.2565ZM36.7815 21.8621L37.5673 21.7123L37.0993 19.2565L36.3135 19.4062L35.5276 19.556L35.9956 22.0118L36.7815 21.8621Z" fill="#FF4E8D"/>
<path d="M34.0965 20.1378C33.8318 19.7841 33.3304 19.712 32.9767 19.9767C32.623 20.2415 32.5508 20.7428 32.8156 21.0966L33.4561 20.6172L34.0965 20.1378ZM34.9456 22.86L35.5729 22.3635C35.2644 21.9737 35.1639 21.7865 35.0087 21.5126C34.8328 21.202 34.6156 20.8314 34.0965 20.1378L33.4561 20.6172L32.8156 21.0966C33.2883 21.7282 33.469 22.0407 33.6165 22.3011C33.7847 22.598 33.933 22.8697 34.3184 23.3565L34.9456 22.86Z" fill="#FF4E8D"/>
<path d="M40.2045 19.415C40.2654 18.9773 39.96 18.5732 39.5224 18.5123C39.0848 18.4514 38.6806 18.7568 38.6197 19.1944L39.4121 19.3047L40.2045 19.415ZM39.0675 21.7808L39.8599 21.8911L40.2045 19.415L39.4121 19.3047L38.6197 19.1944L38.2752 21.6706L39.0675 21.7808Z" fill="#FF4E8D"/>
<path d="M43.1884 20.6809C43.3962 20.291 43.2486 19.8064 42.8586 19.5987C42.4687 19.3909 41.9842 19.5386 41.7764 19.9285L42.4824 20.3047L43.1884 20.6809ZM41.3068 22.511L42.0128 22.8872L43.1884 20.6809L42.4824 20.3047L41.7764 19.9285L40.6008 22.1348L41.3068 22.511Z" fill="#FF4E8D"/>
<path d="M45.3782 23.1654C45.7025 22.8654 45.7223 22.3592 45.4222 22.0349C45.1222 21.7105 44.6161 21.6908 44.2917 21.9908L44.835 22.5781L45.3782 23.1654ZM42.9997 24.2757L43.5429 24.863L45.3782 23.1654L44.835 22.5781L44.2917 21.9908L42.4565 23.6884L42.9997 24.2757Z" fill="#FF4E8D"/>
</svg>
