<svg width="57" height="56" viewBox="0 0 57 56" fill="none" xmlns="http://www.w3.org/2000/svg">
<path d="M0 23C0 21.3431 1.34315 20 3 20H7V29H3C1.34315 29 0 27.6569 0 26V23Z" fill="#FFA2C3"/>
<path d="M57 23C57 21.3431 55.6569 20 54 20H50V29H54C55.6569 29 57 27.6569 57 26V23Z" fill="#FFA2C3"/>
<path d="M4.52675 23.1719C4.96632 15.2215 11.5413 9 19.5039 9H37.289C45.181 9 51.7233 15.1154 52.2549 22.9895L52.4099 25.2852L52.0842 31.2101C51.706 38.0886 44.6488 42.5337 38.2816 39.9037L32.1279 37.362C29.683 36.3521 26.9376 36.3521 24.4927 37.362L18.4771 39.8467C12.0711 42.4926 4.98133 37.9777 4.66962 31.0538L4.40992 25.2852L4.52675 23.1719Z" fill="#FFCADD"/>
<path d="M13 22.9992C14 25.5 20.2 29.3992 25 22.9992" stroke="#FF4E8D" stroke-width="1.6" stroke-linecap="round"/>
<path d="M15.5657 28.5657C15.2533 28.8781 14.7467 28.8781 14.4343 28.5657C14.1219 28.2533 14.1219 27.7467 14.4343 27.4343L15 28L15.5657 28.5657ZM15.5 25.4844L16.1247 24.9846C16.684 25.6838 16.643 26.4976 16.4504 27.1079C16.2605 27.7098 15.893 28.2384 15.5657 28.5657L15 28L14.4343 27.4343C14.607 27.2616 14.8228 26.949 14.9246 26.6265C15.0237 26.3123 14.9826 26.1183 14.8753 25.9841L15.5 25.4844Z" fill="#FF4E8D"/>
<path d="M20.2155 29.3578C20.018 29.753 19.5374 29.9131 19.1422 29.7155C18.747 29.518 18.5869 29.0374 18.7845 28.6422L19.5 29L20.2155 29.3578ZM19.0245 26.5543L19.5814 25.9799C20.0959 26.4787 20.5028 26.9937 20.6053 27.6293C20.7082 28.2666 20.4734 28.842 20.2155 29.3578L19.5 29L18.7845 28.6422C19.0266 28.158 19.0418 27.9834 19.0258 27.8843C19.0095 27.7834 18.9287 27.5756 18.4677 27.1286L19.0245 26.5543Z" fill="#FF4E8D"/>
<path d="M25.3 27.5C25.3 27.9418 24.9419 28.3 24.5 28.3C24.0582 28.3 23.7 27.9418 23.7 27.5L24.5 27.5L25.3 27.5ZM22.7809 25.3575L22.9108 24.5681C24.417 24.816 25.3 26.1801 25.3 27.5L24.5 27.5L23.7 27.5C23.7 26.8199 23.2507 26.2456 22.651 26.1469L22.7809 25.3575Z" fill="#FF4E8D"/>
<ellipse cx="38" cy="25.9844" rx="6" ry="3.5" fill="white"/>
<circle cx="38" cy="26" r="2" fill="#303030"/>
<path d="M32 25.4852C33 22.9844 39.2 19.0852 44 25.4852" stroke="#FF4E8D" stroke-width="1.6" stroke-linecap="round"/>
<path d="M34.4438 18.8344C34.0761 18.5893 33.5794 18.6886 33.3344 19.0562C33.0893 19.4239 33.1886 19.9206 33.5562 20.1656L34 19.5L34.4438 18.8344ZM34.5 23L35.1247 23.4998C35.6156 22.8861 35.8186 21.992 35.747 21.1682C35.6739 20.3278 35.2996 19.4049 34.4438 18.8344L34 19.5L33.5562 20.1656C33.9004 20.3951 34.1094 20.8056 34.153 21.3068C34.198 21.8247 34.051 22.2806 33.8753 22.5002L34.5 23Z" fill="#FF4E8D"/>
<path d="M39.1009 17.9056C38.8136 17.5699 38.3086 17.5307 37.9729 17.818C37.6373 18.1053 37.5981 18.6104 37.8854 18.946L38.4932 18.4258L39.1009 17.9056ZM38.0245 21.9301L38.4901 22.5807C39.1292 22.1233 39.5672 21.3178 39.7219 20.5055C39.8796 19.6768 39.7698 18.687 39.1009 17.9056L38.4932 18.4258L37.8854 18.946C38.1544 19.2602 38.2442 19.712 38.1501 20.2063C38.0529 20.717 37.7877 21.1159 37.5589 21.2796L38.0245 21.9301Z" fill="#FF4E8D"/>
<path d="M44.5261 19.9936C44.4169 19.5655 43.9813 19.307 43.5532 19.4162C43.1251 19.5255 42.8666 19.9611 42.9758 20.3892L43.751 20.1914L44.5261 19.9936ZM41.7809 23.1272L41.9108 23.9165C42.6862 23.7889 43.4353 23.2602 43.9332 22.6001C44.4412 21.9266 44.7805 20.9903 44.5261 19.9936L43.751 20.1914L42.9758 20.3892C43.0781 20.79 42.9588 21.2349 42.6558 21.6366C42.3428 22.0516 41.9285 22.2921 41.651 22.3378L41.7809 23.1272Z" fill="#FF4E8D"/>
</svg>
