<svg width="57" height="56" viewBox="0 0 57 56" fill="none" xmlns="http://www.w3.org/2000/svg">
<path d="M0 25.1035C0 23.4467 1.34315 22.1035 3 22.1035H7V31.1035H3C1.34315 31.1035 0 29.7604 0 28.1035V25.1035Z" fill="#FFA2C3"/>
<path d="M56.1 25.1035C56.1 23.4467 54.7569 22.1035 53.1 22.1035H49.1V31.1035H53.1C54.7569 31.1035 56.1 29.7604 56.1 28.1035V25.1035Z" fill="#FFA2C3"/>
<path d="M4.22675 25.2754C4.66632 17.325 11.2413 11.1035 19.2039 11.1035H36.989C44.881 11.1035 51.4233 17.2189 51.9549 25.093L52.1099 27.3887L51.7842 33.3136C51.406 40.1921 44.3488 44.6372 37.9816 42.0073L31.8279 39.4655C29.383 38.4557 26.6376 38.4557 24.1927 39.4655L18.1771 41.9502C11.7711 44.5962 4.68133 40.0812 4.36962 33.1573L4.10992 27.3887L4.22675 25.2754Z" fill="#FFCADD"/>
<path d="M12.7 25.1027C13.7 27.6035 19.9 31.5027 24.7 25.1027" stroke="#FF82AE" stroke-width="1.6" stroke-linecap="round"/>
<path d="M15.2657 30.6692C14.9533 30.9816 14.4467 30.9816 14.1343 30.6692C13.8219 30.3568 13.8219 29.8502 14.1343 29.5378L14.7 30.1035L15.2657 30.6692ZM15.2 27.5879L15.8247 27.0881C16.384 27.7873 16.343 28.6011 16.1504 29.2114C15.9605 29.8134 15.593 30.3419 15.2657 30.6692L14.7 30.1035L14.1343 29.5378C14.307 29.3651 14.5228 29.0525 14.6246 28.73C14.7237 28.4158 14.6826 28.2218 14.5753 28.0876L15.2 27.5879Z" fill="#FF82AE"/>
<path d="M19.9155 31.4613C19.7179 31.8565 19.2374 32.0166 18.8422 31.8191C18.447 31.6215 18.2869 31.1409 18.4845 30.7457L19.2 31.1035L19.9155 31.4613ZM18.7245 28.6578L19.2814 28.0834C19.7959 28.5822 20.2028 29.0972 20.3053 29.7328C20.4082 30.3701 20.1734 30.9455 19.9155 31.4613L19.2 31.1035L18.4845 30.7457C18.7266 30.2615 18.7418 30.0869 18.7258 29.9878C18.7095 29.8869 18.6287 29.6791 18.1677 29.2321L18.7245 28.6578Z" fill="#FF82AE"/>
<path d="M25 29.6035C25 30.0453 24.6419 30.4035 24.2 30.4035C23.7582 30.4035 23.4 30.0453 23.4 29.6035L24.2 29.6035L25 29.6035ZM22.4809 27.461L22.6108 26.6716C24.117 26.9195 25 28.2836 25 29.6035L24.2 29.6035L23.4 29.6035C23.4 28.9235 22.9507 28.3491 22.3509 28.2504L22.4809 27.461Z" fill="#FF82AE"/>
<path d="M31.7 25.1027C32.7 27.6035 38.9 31.5027 43.7 25.1027" stroke="#FF82AE" stroke-width="1.6" stroke-linecap="round"/>
<path d="M34.2657 30.6692C33.9533 30.9816 33.4467 30.9816 33.1343 30.6692C32.8219 30.3568 32.8219 29.8502 33.1343 29.5378L33.7 30.1035L34.2657 30.6692ZM34.2 27.5879L34.8247 27.0881C35.384 27.7873 35.343 28.6011 35.1504 29.2114C34.9605 29.8134 34.593 30.3419 34.2657 30.6692L33.7 30.1035L33.1343 29.5378C33.307 29.3651 33.5228 29.0525 33.6246 28.73C33.7237 28.4158 33.6826 28.2218 33.5753 28.0876L34.2 27.5879Z" fill="#FF82AE"/>
<path d="M38.9155 31.4613C38.7179 31.8565 38.2374 32.0166 37.8422 31.8191C37.447 31.6215 37.2869 31.1409 37.4845 30.7457L38.2 31.1035L38.9155 31.4613ZM37.7245 28.6578L38.2814 28.0834C38.7959 28.5822 39.2028 29.0972 39.3053 29.7328C39.4082 30.3701 39.1734 30.9455 38.9155 31.4613L38.2 31.1035L37.4845 30.7457C37.7266 30.2615 37.7418 30.0869 37.7258 29.9878C37.7095 29.8869 37.6287 29.6791 37.1677 29.2321L37.7245 28.6578Z" fill="#FF82AE"/>
<path d="M44 29.6035C44 30.0453 43.6419 30.4035 43.2 30.4035C42.7582 30.4035 42.4 30.0453 42.4 29.6035L43.2 29.6035L44 29.6035ZM41.4809 27.461L41.6108 26.6716C43.117 26.9195 44 28.2836 44 29.6035L43.2 29.6035L42.4 29.6035C42.4 28.9235 41.9507 28.3491 41.351 28.2504L41.4809 27.461Z" fill="#FF82AE"/>
</svg>
