<svg width="28" height="28" viewBox="0 0 28 28" fill="none" xmlns="http://www.w3.org/2000/svg">
<path d="M19.7453 18C20.5362 16.8661 21 15.4872 21 14C21 13.4851 20.9444 12.9832 20.8389 12.5M8.25469 18C7.46381 16.8662 7 15.4872 7 14C7 10.134 10.134 7 14 7C14.4221 7 14.8355 7.03737 15.2371 7.10897M18.4999 9.5L13.9999 14M24 14C24 19.5228 19.5228 24 14 24C8.47715 24 4 19.5228 4 14C4 8.47715 8.47715 4 14 4C19.5228 4 24 8.47715 24 14ZM15 14C15 14.5523 14.5523 15 14 15C13.4477 15 13 14.5523 13 14C13 13.4477 13.4477 13 14 13C14.5523 13 15 13.4477 15 14Z" stroke="#6E4EFF" stroke-width="2" stroke-linecap="round" stroke-linejoin="round"/>
</svg>
