<svg width="28" height="28" viewBox="0 0 28 28" fill="none" xmlns="http://www.w3.org/2000/svg">
<path d="M7.23183 22.4436H20.7584C22.89 22.4436 24 21.3117 24 19.1489V6.84938C24 4.68661 22.89 3.55469 20.7584 3.55469H7.23183C5.11002 3.55469 4 4.6765 4 6.84938V19.1489C4 21.3117 5.11002 22.4436 7.23183 22.4436ZM7.222 20.4324C6.40668 20.4324 5.95481 19.9978 5.95481 19.1085V9.81056C5.95481 8.92119 6.40668 8.48662 7.222 8.48662H20.7682C21.5835 8.48662 22.0354 8.92119 22.0354 9.81056V19.1085C22.0354 19.9978 21.5835 20.4324 20.7682 20.4324H7.222ZM12.1041 11.9733H12.6837C13.0373 11.9733 13.1552 11.8622 13.1552 11.5084V10.9122C13.1552 10.5483 13.0373 10.4372 12.6837 10.4372H12.1041C11.7505 10.4372 11.6326 10.5483 11.6326 10.9122V11.5084C11.6326 11.8622 11.7505 11.9733 12.1041 11.9733ZM15.3163 11.9733H15.8959C16.2397 11.9733 16.3576 11.8622 16.3576 11.5084V10.9122C16.3576 10.5483 16.2397 10.4372 15.8959 10.4372H15.3163C14.9627 10.4372 14.8448 10.5483 14.8448 10.9122V11.5084C14.8448 11.8622 14.9627 11.9733 15.3163 11.9733ZM18.5187 11.9733H19.0982C19.4519 11.9733 19.5697 11.8622 19.5697 11.5084V10.9122C19.5697 10.5483 19.4519 10.4372 19.0982 10.4372H18.5187C18.1749 10.4372 18.057 10.5483 18.057 10.9122V11.5084C18.057 11.8622 18.1749 11.9733 18.5187 11.9733ZM8.90177 15.2276H9.47151C9.82515 15.2276 9.94303 15.1164 9.94303 14.7526V14.1563C9.94303 13.8026 9.82515 13.6914 9.47151 13.6914H8.90177C8.54813 13.6914 8.43026 13.8026 8.43026 14.1563V14.7526C8.43026 15.1164 8.54813 15.2276 8.90177 15.2276ZM12.1041 15.2276H12.6837C13.0373 15.2276 13.1552 15.1164 13.1552 14.7526V14.1563C13.1552 13.8026 13.0373 13.6914 12.6837 13.6914H12.1041C11.7505 13.6914 11.6326 13.8026 11.6326 14.1563V14.7526C11.6326 15.1164 11.7505 15.2276 12.1041 15.2276ZM15.3163 15.2276H15.8959C16.2397 15.2276 16.3576 15.1164 16.3576 14.7526V14.1563C16.3576 13.8026 16.2397 13.6914 15.8959 13.6914H15.3163C14.9627 13.6914 14.8448 13.8026 14.8448 14.1563V14.7526C14.8448 15.1164 14.9627 15.2276 15.3163 15.2276ZM18.5187 15.2276H19.0982C19.4519 15.2276 19.5697 15.1164 19.5697 14.7526V14.1563C19.5697 13.8026 19.4519 13.6914 19.0982 13.6914H18.5187C18.1749 13.6914 18.057 13.8026 18.057 14.1563V14.7526C18.057 15.1164 18.1749 15.2276 18.5187 15.2276ZM8.90177 18.4718H9.47151C9.82515 18.4718 9.94303 18.3606 9.94303 18.0069V17.4106C9.94303 17.0468 9.82515 16.9356 9.47151 16.9356H8.90177C8.54813 16.9356 8.43026 17.0468 8.43026 17.4106V18.0069C8.43026 18.3606 8.54813 18.4718 8.90177 18.4718ZM12.1041 18.4718H12.6837C13.0373 18.4718 13.1552 18.3606 13.1552 18.0069V17.4106C13.1552 17.0468 13.0373 16.9356 12.6837 16.9356H12.1041C11.7505 16.9356 11.6326 17.0468 11.6326 17.4106V18.0069C11.6326 18.3606 11.7505 18.4718 12.1041 18.4718ZM15.3163 18.4718H15.8959C16.2397 18.4718 16.3576 18.3606 16.3576 18.0069V17.4106C16.3576 17.0468 16.2397 16.9356 15.8959 16.9356H15.3163C14.9627 16.9356 14.8448 17.0468 14.8448 17.4106V18.0069C14.8448 18.3606 14.9627 18.4718 15.3163 18.4718Z" fill="#6E4EFF"/>
</svg>
