<svg width="36" height="36" viewBox="0 0 36 36" fill="none" xmlns="http://www.w3.org/2000/svg">
<path d="M2.94007 26.7435H17.6314C19.5763 26.7435 20.5714 25.7859 20.5714 23.8972V15.2076C20.5714 13.3278 19.5763 12.3613 17.6314 12.3613H15.7045V11.4214C15.7045 10.0647 14.8179 9.25781 13.3072 9.25781H7.26423C5.75349 9.25781 4.86694 10.0647 4.86694 11.4214V12.3613H2.94007C1.00415 12.3613 0 13.3278 0 15.2076V23.8972C0 25.7859 1.00415 26.7435 2.94007 26.7435ZM6.55861 11.51C6.55861 11.0489 6.88428 10.7563 7.38183 10.7563H13.1896C13.6962 10.7563 14.0128 11.0489 14.0128 11.51V12.3613H6.55861V11.51ZM1.80023 15.2608C1.80023 14.4627 2.22541 14.0637 3.01244 14.0637H17.559C18.346 14.0637 18.7622 14.4627 18.7622 15.2608V16.4223C16.2654 17.2647 13.3977 17.6815 10.2857 17.6815C7.17377 17.6815 4.30607 17.2647 1.80023 16.4223V15.2608ZM3.01244 25.0411C2.22541 25.0411 1.80023 24.6509 1.80023 23.844V18.1337C3.65473 18.6834 5.67207 19.0381 7.77083 19.1888V19.8893C7.77083 20.5632 8.16887 20.9356 8.87448 20.9356H11.6969C12.4026 20.9356 12.7916 20.5632 12.7916 19.8893V19.1888C14.8994 19.0381 16.9077 18.6834 18.7622 18.1337V23.844C18.7622 24.6509 18.346 25.0411 17.559 25.0411H3.01244Z" fill="#FF4E8D"/>
<path d="M28.9415 11.5547V25.0547" stroke="#FF4E8D" stroke-width="1.6" stroke-linecap="round"/>
<line x1="28.8577" y1="25.5561" x2="31.2618" y2="23.152" stroke="#FF4E8D" stroke-width="1.6" stroke-linecap="round"/>
<line x1="0.8" y1="-0.8" x2="4.2" y2="-0.8" transform="matrix(-0.707107 -0.707107 -0.707107 0.707107 28.7898 26.6875)" stroke="#FF4E8D" stroke-width="1.6" stroke-linecap="round"/>
</svg>
