<svg width="96" height="15" viewBox="0 0 96 15" fill="none" xmlns="http://www.w3.org/2000/svg">
<path d="M3.06998 14.8545C3.40412 15.1055 3.81647 15.0218 4.29991 14.6802L7.9968 12.0174L11.6937 14.6802C12.1771 15.0218 12.5966 15.1055 12.9307 14.8545C13.2578 14.6105 13.3288 14.2062 13.1369 13.6556L11.6795 9.39647L15.4119 6.76853C15.8882 6.43394 16.0944 6.06449 15.9593 5.67413C15.8243 5.29074 15.4475 5.10254 14.8574 5.10951L10.2789 5.13739L8.88547 0.857393C8.70774 0.299739 8.41625 0 7.9968 0C7.58445 0 7.29297 0.299739 7.10812 0.857393L5.71468 5.13739L1.13622 5.10951C0.546143 5.10254 0.176454 5.29074 0.0413752 5.67413C-0.0937034 6.06449 0.10536 6.43394 0.588799 6.76853L4.32124 9.39647L2.8567 13.6556C2.66474 14.2062 2.73584 14.6105 3.06998 14.8545Z" fill="#303030"/>
<path d="M23.07 14.8545C23.4041 15.1055 23.8165 15.0218 24.2999 14.6802L27.9968 12.0174L31.6937 14.6802C32.1771 15.0218 32.5966 15.1055 32.9307 14.8545C33.2578 14.6105 33.3288 14.2062 33.1369 13.6556L31.6795 9.39647L35.4119 6.76853C35.8882 6.43394 36.0944 6.06449 35.9593 5.67413C35.8243 5.29074 35.4475 5.10254 34.8574 5.10951L30.2789 5.13739L28.8855 0.857393C28.7077 0.299739 28.4163 0 27.9968 0C27.5845 0 27.293 0.299739 27.1081 0.857393L25.7147 5.13739L21.1362 5.10951C20.5461 5.10254 20.1765 5.29074 20.0414 5.67413C19.9063 6.06449 20.1054 6.43394 20.5888 6.76853L24.3212 9.39647L22.8567 13.6556C22.6647 14.2062 22.7358 14.6105 23.07 14.8545Z" fill="#303030"/>
<path d="M43.07 14.8545C43.4041 15.1055 43.8165 15.0218 44.2999 14.6802L47.9968 12.0174L51.6937 14.6802C52.1771 15.0218 52.5966 15.1055 52.9307 14.8545C53.2578 14.6105 53.3288 14.2062 53.1369 13.6556L51.6795 9.39647L55.4119 6.76853C55.8882 6.43394 56.0944 6.06449 55.9593 5.67413C55.8243 5.29074 55.4475 5.10254 54.8574 5.10951L50.2789 5.13739L48.8855 0.857393C48.7077 0.299739 48.4163 0 47.9968 0C47.5845 0 47.293 0.299739 47.1081 0.857393L45.7147 5.13739L41.1362 5.10951C40.5461 5.10254 40.1765 5.29074 40.0414 5.67413C39.9063 6.06449 40.1054 6.43394 40.5888 6.76853L44.3212 9.39647L42.8567 13.6556C42.6647 14.2062 42.7358 14.6105 43.07 14.8545Z" fill="#303030"/>
<path d="M63.07 14.8545C63.4041 15.1055 63.8165 15.0218 64.2999 14.6802L67.9968 12.0174L71.6937 14.6802C72.1771 15.0218 72.5966 15.1055 72.9307 14.8545C73.2578 14.6105 73.3288 14.2062 73.1369 13.6556L71.6795 9.39647L75.4119 6.76853C75.8882 6.43394 76.0944 6.06449 75.9593 5.67413C75.8243 5.29074 75.4475 5.10254 74.8574 5.10951L70.2789 5.13739L68.8855 0.857393C68.7077 0.299739 68.4163 0 67.9968 0C67.5845 0 67.293 0.299739 67.1081 0.857393L65.7147 5.13739L61.1362 5.10951C60.5461 5.10254 60.1765 5.29074 60.0414 5.67413C59.9063 6.06449 60.1054 6.43394 60.5888 6.76853L64.3212 9.39647L62.8567 13.6556C62.6647 14.2062 62.7358 14.6105 63.07 14.8545Z" fill="#303030"/>
<path d="M83.07 14.8545C83.4041 15.1055 83.8165 15.0218 84.2999 14.6802L87.9968 12.0174L91.6937 14.6802C92.1771 15.0218 92.5966 15.1055 92.9307 14.8545C93.2578 14.6105 93.3288 14.2062 93.1369 13.6556L91.6795 9.39647L95.4119 6.76853C95.8882 6.43394 96.0944 6.06449 95.9593 5.67413C95.8243 5.29074 95.4475 5.10254 94.8574 5.10951L90.2789 5.13739L88.8855 0.857393C88.7077 0.299739 88.4163 0 87.9968 0C87.5845 0 87.293 0.299739 87.1081 0.857393L85.7147 5.13739L81.1362 5.10951C80.5461 5.10254 80.1765 5.29074 80.0414 5.67413C79.9063 6.06449 80.1054 6.43394 80.5888 6.76853L84.3212 9.39647L82.8567 13.6556C82.6647 14.2062 82.7358 14.6105 83.07 14.8545Z" fill="#303030"/>
</svg>
